<svg xmlns="http://www.w3.org/2000/svg" height="800" width="1200" viewBox="-23.69016 -9.8059 205.31472 58.8354"><defs><clipPath clipPathUnits="userSpaceOnUse" id="a"><path d="M876.992 0h239.996v233.984H876.992z"/></clipPath><clipPath clipPathUnits="userSpaceOnUse" id="b"><path d="M1216.99 263.984h46.6016v49.8047H1216.99z"/></clipPath><clipPath clipPathUnits="userSpaceOnUse" id="c"><path d="M1136.99 3.9844h126.602v309.805H1136.99z"/></clipPath><clipPath clipPathUnits="userSpaceOnUse" id="d"><path d="M0 3.9844h316.992v309.805H0z"/></clipPath><clipPath clipPathUnits="userSpaceOnUse" id="e"><path d="M346.992 3.9844h150v309.805h-150z"/></clipPath></defs><g clip-path="url(#a)" transform="matrix(.125 0 0 -.125 -.0146 39.2236)"><path d="M1003.2 191.367c42.15 0 56.37-27.5 60.98-49.844H939.258c7.695 31.446 30 49.844 63.942 49.844m72.82-91.5623h39.06v19.2183c0 31.172-10 59.649-28.24 80.157-20.2 22.695-49.11 34.726-83.64 34.726-34.684 0-64.333-11.914-85.778-34.492-19.844-20.898-30.82-49.453-30.82-80.391 0-68.7105 41.367-119.5308 116.488-119.2574 62.54.1953 96.17 34.961 105.39 64.2969h-50.9c-12.03-16.5625-34.06-25.4297-53.95-24.8047-36.989 1.1328-65.896 27.1485-64.567 60.5469h136.957" fill="#3676c4"/></g><g clip-path="url(#b)" transform="matrix(.125 0 0 -.125 -.0146 39.2236)"><path d="M1241.95 277.266c-8.86 0-16.01 7.187-16.01 16.015 0 8.867 7.15 16.016 16.01 16.016 8.87 0 16.02-7.149 16.06-16.016-.04-8.828-7.19-16.015-16.06-16.015m0 36.484c-11.32 0-20.5-9.141-20.5-20.469 0-11.289 9.18-20.468 20.5-20.468 11.33 0 20.51 9.179 20.51 20.468 0 11.328-9.18 20.469-20.51 20.469" fill="#3676c4"/></g><path d="M155.4491 2.4657h-.6837v-.7372h.6837c.205 0 .3763.1416.3763.3663 0 .2197-.1613.371-.3763.371m.835-.371c0-.3956-.3025-.7277-.7562-.7277h-1.2063v2.3291h.4438v-.8837h.5712l.64.8838h.5463l-.6975-.9473c.2825-.1074.4587-.3663.4587-.6542" fill="#3676c4"/><g clip-path="url(#c)" transform="matrix(.125 0 0 -.125 -.0146 39.2236)"><path d="M1239.8 50.3125c-6.91 0-13.51 1.3281-19.6 3.8672-6.14 2.5781-11.57 6.1719-16.1 10.7031-4.49 4.4531-8.12 9.8828-10.7 16.0156-2.58 6.0938-3.87 12.6954-3.87 19.5316v213.359h-45.78v-213.32c0-13.0471 2.54-25.5081 7.5-37.1487 4.96-11.5625 11.95-21.875 20.7-30.664 8.83-8.75 19.14-15.7032 30.71-20.625 11.64-4.961 24.14-7.5 37.14-7.5h23.99v45.7812h-23.99" fill="#3676c4"/></g><path d="M106.2402 17.6074c-.6201-1.4648-1.4892-2.7637-2.583-3.8623-1.0888-1.0937-2.3681-1.9726-3.7988-2.6025-1.4355-.6349-3.003-.9571-4.6582-.9571-1.9531 0-3.7793.4492-5.4395 1.333-1.372.7325-2.5732 1.7041-3.5742 2.8906-.996-1.1865-2.1875-2.1532-3.5449-2.8857-1.6455-.8887-3.4815-1.3379-5.459-1.3379-1.626 0-3.1885.3222-4.6337.9521-1.4503.6349-2.7295 1.5138-3.8038 2.6124-1.0742 1.0986-1.9287 2.3975-2.5487 3.8622-.6202 1.465-.9327 3.0665-.9327 4.7657v16.2354h5.8935V22.3828c0-.8495.1563-1.6553.4688-2.3974.3125-.7471.7471-1.4111 1.2989-1.9678.5468-.5616 1.1913-1.0058 1.9188-1.3281.7325-.3224 1.5187-.4786 2.3438-.4786.8301 0 1.6309.1611 2.3731.4786.747.3223 1.4014.7714 1.9433 1.3281.5518.5615.9863 1.2207 1.2988 1.9678.3125.747.4688 1.5527.4688 2.3974v16.2305h5.8936V22.3828c0-.8447.1563-1.6504.4688-2.3974a6.2324 6.2324 0 011.2938-1.9678c.5518-.5616 1.1963-1.0058 1.9288-1.3281.7275-.3224 1.5136-.4786 2.3437-.4786.8252 0 1.6212.1611 2.3682.4786.7422.3223 1.3965.7665 1.9482 1.3281.5469.5615.9815 1.2207 1.2989 1.9727.3076.7372.4639 1.543.4639 2.3925v16.2305h5.8935V22.3779c0-1.6943-.3125-3.3008-.9327-4.7705" fill="#3676c4"/><g clip-path="url(#d)" transform="matrix(.125 0 0 -.125 -.0146 39.2236)"><path d="M261.055 313.789L.1172 5.1953h54.5703L134.688 99.336h92.07v43.7501h-54.922l96.484 113.516V5.1953h45.782V313.789h-53.047" fill="#3676c4"/></g><g clip-path="url(#e)" transform="matrix(.125 0 0 -.125 -.0146 39.2236)"><path d="M467.773 50.3125c-6.875 0-13.476 1.3281-19.57 3.8672-6.133 2.5781-11.523 6.1719-16.055 10.7031-4.531 4.4531-8.164 9.8828-10.742 16.0156-2.539 6.0938-3.867 12.6954-3.867 19.5316v82.617h71.68v46.289h-71.68v84.453h-45.781v-84.453h-24.024v-46.289h24.024v-82.578c0-13.0471 2.539-25.5081 7.5-37.1487 4.961-11.5625 11.953-21.875 20.742-30.664 8.789-8.75 19.102-15.7032 30.703-20.625 11.602-4.961 24.063-7.5 37.07-7.5h22.618v45.7812h-22.618" fill="#3676c4"/></g></svg>