<svg xmlns="http://www.w3.org/2000/svg" height="800" width="1200" viewBox="-13.379235 -5.150575 115.95337 30.90345"><defs><clipPath clipPathUnits="userSpaceOnUse" id="a"><path d="M39.992 40.364h252.88V99.2H39.992z"/></clipPath></defs><g clip-path="url(#a)" transform="matrix(.35278 0 0 -.35278 -14.1238 34.8931)"><path d="M136.4103 59.3614l-1.481 18.551h-.061l-5.72-14.812c-.53-1.38-1.701-2.511-3.342-2.511-1.639 0-2.938 1.364-3.341 2.511l-5.594 14.626h-.06l-1.608-18.365-5.457.004 2.787 26.15c.183 1.444 1.367 3.088 2.977 3.088 2.468 0 3.456-1.444 3.948-2.888l6.318-15.878h.061l6.317 15.878c.556 1.444 1.513 2.888 3.95 2.888 1.61 0 2.794-1.644 2.976-3.425l2.762-25.813zm8.3187 22.1176h5.086V59.364h-5.086zm120.301 0h5.086V59.364h-5.086zm-112.399-7.7583c0 6.476 2.479 8.003 6.644 8.003h5.435c6.581 0 7.436.428 7.393-5.834l-11.919.02c-2.437 0-2.804-1.547-2.804-4.297v-2.382c0-3.207.458-4.429 2.645-4.429l12.265.01c0-3.726-.049-5.692-4.692-5.692h-8.323c-4.165 0-6.644 1.528-6.644 8.004zm41.7428-.2137v1.405c0 3.971-.957 6.568-4.518 6.568h-14.779V59.365h4.624v5.743h8.093c1.437 0 1.894-.765 1.894-3.086v-2.657h4.625v3.756c0 3.635-1.146 4.521-2.521 4.889v.06c2.125.734 2.582 2.475 2.582 5.437m-4.498-.581c0-1.587-.458-2.321-1.708-2.321h-8.467v5.377h8.051c1.458 0 2.124-.368 2.124-2.322zm7.2873.7947c0 6.476 2.478 8.003 6.643 8.003h7.414c4.165 0 6.643-1.527 6.643-8.003v-6.597c0-6.476-2.478-8.004-6.643-8.004h-7.414c-4.165 0-6.643 1.528-6.643 8.004v6.597m4.748-4.49c0-3.207.459-4.429 2.645-4.429h5.915c2.186 0 2.644 1.222 2.644 4.429v2.382c0 2.75-.458 4.43-2.895 4.43h-5.414c-2.436 0-2.895-1.68-2.895-4.43zm40.8536 12.2488h4.622v-7.881h9.748v7.881h4.623v-22.115h-4.623v8.37h-9.748v-8.37h-4.622zm44.6514 0h-14.291v-22.115h4.623v5.559h10.875c3.271 0 4.249 3.789 4.249 7.086v1.895c0 4.337-1.062 7.575-5.456 7.575m.708-8.705c0-1.314-.416-2.352-1.5-2.352h-8.876v5.559h8.481c1.395 0 1.895-.855 1.895-2.352zm-67.7507.9125c0 6.476 2.478 8.003 6.643 8.003h5.436c6.581 0 7.407.429 7.365-5.834l-11.891.021c-2.438 0-2.805-1.548-2.805-4.297v-2.382c0-3.208.459-4.429 2.645-4.429l12.266.01c0-3.727-.048-5.693-4.692-5.693h-8.324c-4.165 0-6.643 1.528-6.643 8.005z" fill="#231f20"/><path d="M79.7847 97.4465c-2.841.816-5.852 1.258-8.975 1.258-16.976 0-30.739-12.974-30.739-28.98 0-16.005 13.763-28.979 30.739-28.979 15.6 0 28.476 10.958 30.463 25.152z" fill="#fff"/><path d="M83.6022 96.0287c-3.956 1.867-7.614 2.793-12.322 2.876-16.971.295-30.958-12.536-31.24-28.659-.048-2.792.317-5.499 1.043-8.07l8.773 12.299 5.94-9.297s1.785-2.024.431-4.071c-.084-.128-8.059-11.144-8.059-11.144 5.508-5.771 13.257-9.294 22.094-9.448 8.573-.151 16.226 2.976 21.893 8.257l-18.66 29.454s2.943 4.13 5.244 7.403c2.534 3.602 4.815 1.087 5.576-.104 5.471-8.578 15.737-24.847 15.737-24.847l.005.094c1.052 2.419 1.591 3.152 1.704 6.636l-18.159 28.621m-4.427-35.269s-4.967-7.244-5.476-7.935c-3.039-4.129-5.274.638-5.274.638l-15.806 24.846s2.942 4.129 5.245 7.402c2.533 3.603 4.814 1.087 5.575-.104 5.471-8.577 15.736-24.847 15.736-24.847" fill="#ee2223"/><path d="M88.455 94.4735c0 1.361 1.103 2.361 2.405 2.361 1.291 0 2.392-1 2.392-2.361 0-1.37-1.101-2.372-2.392-2.372-1.302 0-2.405 1.002-2.405 2.372m2.405-1.977c1.071 0 1.916.84 1.916 1.977 0 1.121-.845 1.967-1.916 1.967-1.083 0-1.929-.846-1.929-1.967 0-1.137.846-1.977 1.929-1.977m-.5.607h-.414v2.731h1.039c.645 0 .966-.24.966-.778 0-.489-.308-.702-.708-.752l.776-1.201h-.464l-.72 1.184h-.475v-1.184m.495 1.533c.35 0 .662.026.662.446 0 .336-.306.401-.595.401h-.562v-.847z" fill="#231f20"/></g></svg>